<svg xmlns="http://www.w3.org/2000/svg" viewBox="0 0 1850 200" width="1850" height="200" font-family="system-ui,sans-serif"><rect width="100%" height="100%" fill="#F5F4F0"/><text x="30" y="22" font-size="14" font-weight="700" fill="#1F2937">Propagation tree</text><text x="30" y="38" font-size="11" fill="#6B7280">Same hierarchy as the sunburst, flattened for reading.</text>
<path d="M 30.0 115.0 C 130.0 115.0, 130.0 82.0, 230.0 82.0" fill="none" stroke="#CBD5E1" stroke-width="1.4" stroke-opacity="0.85"/>
<path d="M 230.0 82.0 C 330.0 82.0, 330.0 82.0, 430.0 82.0" fill="none" stroke="#CBD5E1" stroke-width="1.4" stroke-opacity="0.85"/>
<path d="M 430.0 82.0 C 530.0 82.0, 530.0 82.0, 630.0 82.0" fill="none" stroke="#CBD5E1" stroke-width="1.4" stroke-opacity="0.85"/>
<path d="M 630.0 82.0 C 730.0 82.0, 730.0 82.0, 830.0 82.0" fill="none" stroke="#CBD5E1" stroke-width="1.4" stroke-opacity="0.85"/>
<path d="M 830.0 82.0 C 930.0 82.0, 930.0 52.0, 1030.0 52.0" fill="none" stroke="#CBD5E1" stroke-width="1.4" stroke-opacity="0.85"/>
<path d="M 830.0 82.0 C 930.0 82.0, 930.0 76.0, 1030.0 76.0" fill="none" stroke="#CBD5E1" stroke-width="1.4" stroke-opacity="0.85"/>
<path d="M 1030.0 76.0 C 1130.0 76.0, 1130.0 76.0, 1230.0 76.0" fill="none" stroke="#CBD5E1" stroke-width="1.4" stroke-opacity="0.85"/>
<path d="M 830.0 82.0 C 930.0 82.0, 930.0 112.0, 1030.0 112.0" fill="none" stroke="#CBD5E1" stroke-width="1.4" stroke-opacity="0.85"/>
<path d="M 1030.0 112.0 C 1130.0 112.0, 1130.0 100.0, 1230.0 100.0" fill="none" stroke="#CBD5E1" stroke-width="1.4" stroke-opacity="0.85"/>
<path d="M 1230.0 100.0 C 1330.0 100.0, 1330.0 100.0, 1430.0 100.0" fill="none" stroke="#CBD5E1" stroke-width="1.4" stroke-opacity="0.85"/>
<path d="M 1030.0 112.0 C 1130.0 112.0, 1130.0 124.0, 1230.0 124.0" fill="none" stroke="#CBD5E1" stroke-width="1.4" stroke-opacity="0.85"/>
<path d="M 1230.0 124.0 C 1330.0 124.0, 1330.0 124.0, 1430.0 124.0" fill="none" stroke="#CBD5E1" stroke-width="1.4" stroke-opacity="0.85"/>
<path d="M 30.0 115.0 C 130.0 115.0, 130.0 148.0, 230.0 148.0" fill="none" stroke="#CBD5E1" stroke-width="1.4" stroke-opacity="0.85"/>
<path d="M 230.0 148.0 C 330.0 148.0, 330.0 148.0, 430.0 148.0" fill="none" stroke="#CBD5E1" stroke-width="1.4" stroke-opacity="0.85"/>
<path d="M 430.0 148.0 C 530.0 148.0, 530.0 148.0, 630.0 148.0" fill="none" stroke="#CBD5E1" stroke-width="1.4" stroke-opacity="0.85"/>
<path d="M 630.0 148.0 C 730.0 148.0, 730.0 148.0, 830.0 148.0" fill="none" stroke="#CBD5E1" stroke-width="1.4" stroke-opacity="0.85"/>
<path d="M 830.0 148.0 C 930.0 148.0, 930.0 148.0, 1030.0 148.0" fill="none" stroke="#CBD5E1" stroke-width="1.4" stroke-opacity="0.85"/>
<circle cx="30.0" cy="115.0" r="6" fill="#FFF" stroke="#B91C1C" stroke-width="2.5"/>
<text x="20.0" y="119.0" font-size="11" font-weight="600" text-anchor="end" fill="#1F2937">src</text>
<circle cx="230.0" cy="82.0" r="5" fill="#FFF" stroke="#B91C1C" stroke-width="2.5"/>
<text x="220.0" y="86.0" font-size="11" font-weight="600" text-anchor="end" fill="#1F2937">commonMain</text>
<circle cx="430.0" cy="82.0" r="5" fill="#FFF" stroke="#B91C1C" stroke-width="2.5"/>
<text x="420.0" y="86.0" font-size="11" font-weight="600" text-anchor="end" fill="#1F2937">com</text>
<circle cx="630.0" cy="82.0" r="5" fill="#FFF" stroke="#B91C1C" stroke-width="2.5"/>
<text x="620.0" y="86.0" font-size="11" font-weight="600" text-anchor="end" fill="#1F2937">jetbrains</text>
<circle cx="830.0" cy="82.0" r="5" fill="#FFF" stroke="#B91C1C" stroke-width="2.5"/>
<text x="820.0" y="86.0" font-size="11" font-weight="600" text-anchor="end" fill="#1F2937">kmpapp</text>
<circle cx="1030.0" cy="52.0" r="4" fill="#FFF" stroke="#1D4ED8" stroke-width="2.5"/>
<text x="1040.0" y="56.0" font-size="11" font-weight="500" text-anchor="start" fill="#1F2937">App</text>
<circle cx="1030.0" cy="76.0" r="5" fill="#FFF" stroke="#B91C1C" stroke-width="2.5"/>
<text x="1020.0" y="80.0" font-size="11" font-weight="600" text-anchor="end" fill="#1F2937">di</text>
<circle cx="1230.0" cy="76.0" r="4" fill="#FFF" stroke="#B91C1C" stroke-width="2.5"/>
<text x="1240.0" y="80.0" font-size="11" font-weight="500" text-anchor="start" fill="#1F2937">Koin</text>
<circle cx="1030.0" cy="112.0" r="5" fill="#FFF" stroke="#B91C1C" stroke-width="2.5"/>
<text x="1020.0" y="116.0" font-size="11" font-weight="600" text-anchor="end" fill="#1F2937">screens</text>
<circle cx="1230.0" cy="100.0" r="5" fill="#FFF" stroke="#B91C1C" stroke-width="2.5"/>
<text x="1220.0" y="104.0" font-size="11" font-weight="600" text-anchor="end" fill="#1F2937">detail</text>
<circle cx="1430.0" cy="100.0" r="4" fill="#FFF" stroke="#B91C1C" stroke-width="2.5"/>
<text x="1440.0" y="104.0" font-size="11" font-weight="500" text-anchor="start" fill="#1F2937">DetailScreen</text>
<circle cx="1230.0" cy="124.0" r="5" fill="#FFF" stroke="#B91C1C" stroke-width="2.5"/>
<text x="1220.0" y="128.0" font-size="11" font-weight="600" text-anchor="end" fill="#1F2937">list</text>
<circle cx="1430.0" cy="124.0" r="4" fill="#FFF" stroke="#B91C1C" stroke-width="2.5"/>
<text x="1440.0" y="128.0" font-size="11" font-weight="500" text-anchor="start" fill="#1F2937">ListScreen</text>
<circle cx="230.0" cy="148.0" r="5" fill="#FFF" stroke="#1D4ED8" stroke-width="2.5"/>
<text x="220.0" y="152.0" font-size="11" font-weight="600" text-anchor="end" fill="#1F2937">main</text>
<circle cx="430.0" cy="148.0" r="5" fill="#FFF" stroke="#1D4ED8" stroke-width="2.5"/>
<text x="420.0" y="152.0" font-size="11" font-weight="600" text-anchor="end" fill="#1F2937">com</text>
<circle cx="630.0" cy="148.0" r="5" fill="#FFF" stroke="#1D4ED8" stroke-width="2.5"/>
<text x="620.0" y="152.0" font-size="11" font-weight="600" text-anchor="end" fill="#1F2937">jetbrains</text>
<circle cx="830.0" cy="148.0" r="5" fill="#FFF" stroke="#1D4ED8" stroke-width="2.5"/>
<text x="820.0" y="152.0" font-size="11" font-weight="600" text-anchor="end" fill="#1F2937">kmpapp</text>
<circle cx="1030.0" cy="148.0" r="4" fill="#FFF" stroke="#1D4ED8" stroke-width="2.5"/>
<text x="1040.0" y="152.0" font-size="11" font-weight="500" text-anchor="start" fill="#1F2937">MuseumApp</text>
</svg>